HIERARCHY
ROOT pelvis
{
  OFFSET 0 100 0
  CHANNELS 6 Xposition Yposition Zposition Zrotation Xrotation Yrotation
  JOINT pelvis_right_femur
  {
    OFFSET -10.78128 -3.44521 -0.5502486
    CHANNELS 3 Zrotation Xrotation Yrotation
    JOINT right_femur_tibia
    {
      OFFSET -0.8047443 -44.0398 -0.1307829
      CHANNELS 3 Zrotation Xrotation Yrotation
      JOINT right_tibia_foot
      {
        OFFSET 3.006224 -47.83518 -5
        CHANNELS 3 Zrotation Xrotation Yrotation
        End Site
        {
          OFFSET 0 -5 15
        }
      }
    }
  }
  JOINT pelvis_left_femur
  {
    OFFSET 10.78128 -3.44521 -0.5502486
    CHANNELS 3 Zrotation Xrotation Yrotation
    JOINT left_femur_tibia
    {
      OFFSET 0.8047443 -44.0398 -0.1307829
      CHANNELS 3 Zrotation Xrotation Yrotation
      JOINT left_tibia_foot
      {
        OFFSET -4.370144 -48.10324 -4.275266
        CHANNELS 3 Zrotation Xrotation Yrotation
        End Site
        {
          OFFSET 0 -5 15
        }
      }
    }
  }
  JOINT pelvis_spine1
  {
    OFFSET 0 6.468898 -3.129235
    CHANNELS 3 Zrotation Xrotation Yrotation
    JOINT spine1
    {
      OFFSET 0 23.15396 4.99043
      CHANNELS 3 Zrotation Xrotation Yrotation
      JOINT spine2
      {
        OFFSET 0 20.79997 -5.064912
        CHANNELS 3 Zrotation Xrotation Yrotation
        JOINT neck
        {
          OFFSET 0 14.38658 9.616178
          CHANNELS 3 Zrotation Xrotation Yrotation
          End Site
          {
            OFFSET 0 20 0
          }
        }
      }
      JOINT right_manubrium
      {
        OFFSET -5.722621 16.35077 3.967754
        CHANNELS 3 Zrotation Xrotation Yrotation
        JOINT right_clavicle
        {
          OFFSET -13.16364 1.694482 -4.693211
          CHANNELS 3 Zrotation Xrotation Yrotation
          JOINT right_humerus
          {
            OFFSET -28.5034 -0.3100689 -2.792744
            CHANNELS 3 Zrotation Xrotation Yrotation
            JOINT right_radius
            {
              OFFSET -25.15693 0.02248979 -1.271978
              CHANNELS 3 Zrotation Xrotation Yrotation
              End Site
              {
                OFFSET -15 0 0
              }
            }
          }
        }
      }
      JOINT left_manubrium
      {
        OFFSET 5.722621 16.35077 3.967754
        CHANNELS 3 Zrotation Xrotation Yrotation
        JOINT left_clavicle
        {
          OFFSET 13.16364 1.694482 -4.693211
          CHANNELS 3 Zrotation Xrotation Yrotation
          JOINT left_humerus
          {
            OFFSET 29.39168 -1.063119 -2.237045
            CHANNELS 3 Zrotation Xrotation Yrotation
            JOINT left_radius
            {
              OFFSET 24.59957 -0.9528479 0.9047498
              CHANNELS 3 Zrotation Xrotation Yrotation
              End Site
              {
                OFFSET 15 -0 -0
              }
            }
          }
        }
      }
    }
  }
}
MOTION
Frames: 23
Frame Time: 0.0416666666667
0 103.5113 0 1.805084 -2.064608 0.05867794 2.305728 -13.59035 6.503386 -0 34.84751 -0 -5.447924 -17.7477 -4.163124 -6.843637 13.19834 -24.88088 -0 4.937324 -0 -0.8607476 -20.18418 22.86897 -4.312805 -2.859747 3.273413 2.057122 7.555404 -7.763381 0.1487849 23.6714 8.525128 4.617698 -21.39737 8.110961 7.48243 -18.0927 11.39115 86.05019 38.51269 -21.74766 -0 0 14.98679 -8.662097 8.832748 4.881039 4.544949 -18.9111 -3.76153 -98.87233 40.61591 26.09546 0 0 -20.4856 -10.89156 17.0207 25.4793
0.1502281 104.2396 1.226347 1.649122 -1.979655 0.07793642 2.449585 -14.44452 6.398184 -0 34.837 -0 -5.346412 -16.95865 -4.177165 -6.739418 13.19705 -24.43026 -0 5.152208 -0 -1.054833 -20.303 22.44408 -4.169828 -2.742956 3.250452 2.04741 7.628106 -7.827477 0.1913602 23.55155 8.497638 4.589326 -21.47397 8.128045 7.3757 -18.08036 11.3578 86.15303 38.24724 -21.7927 -0 0 15.01043 -8.974174 9.005554 5.018116 4.607113 -19.04477 -3.7683 -98.48022 40.30647 25.77319 0 0 -20.63506 -10.62778 16.8301 25.33198
0.3212555 105.3604 3.344289 0.4107393 -2.053968 0.3224744 3.503724 -16.83181 6.923719 -0 40.81333 -0 -7.502513 -8.348633 -3.373451 -6.287888 12.23999 -20.63829 -0 7.19131 -0 2.941777 -19.49988 22.19349 -3.296591 -2.927377 3.045235 2.444715 9.760505 -8.21304 0.7734929 22.64722 6.919579 3.337528 -24.39085 8.145921 5.78915 -19.5851 11.77524 87.14075 33.22482 -20.5384 -0 0 14.36089 -10.27678 8.270788 6.329985 4.62385 -20.21552 -3.231031 -94.70879 32.02295 23.57391 0 0 -17.92297 -0.8354233 17.20678 15.28164
0.4448535 106.4063 5.353425 -0.200926 -0.3650501 0.449139 4.895253 -19.93391 8.006322 -0 36.22067 -0 -7.285239 -10.76753 -3.525555 -5.972436 12.66704 -21.65374 -0 7.308143 -0 3.321373 -20.30949 22.55678 -2.886294 -2.972347 3.352979 2.889227 9.029297 -8.382083 1.049117 22.25591 6.778333 3.198772 -25.7182 8.657991 5.773487 -19.69284 11.51153 86.72892 33.64645 -20.73685 -0 0 15.10445 -7.869735 7.751404 5.267013 5.063643 -19.92916 -2.264856 -96.01603 32.52798 24.70895 0 0 -17.90018 -0.3015538 17.70591 15.17654
0.5251529 107.3993 7.131272 -0.7028141 2.198906 0.4288538 6.818649 -22.85265 10.22752 -0 30.68356 -0 -6.828887 -15.20447 -3.639107 -5.935988 12.64504 -23.58462 -0 7.655827 -0 5.396567 -20.63141 24.23346 -2.72293 -3.267604 4.042118 3.539056 8.016056 -8.493333 1.394978 21.66053 6.558833 2.931006 -27.69302 9.4715 6.094594 -19.88781 11.27114 85.88766 35.38527 -20.67379 -0 0 16.11744 -3.847172 6.884297 3.741354 5.503124 -19.23154 -0.5863631 -97.57405 32.51649 26.15739 0 0 -17.60748 1.715247 18.19332 13.42448
0.5981892 108.3881 8.701571 -0.8422806 4.683586 0.2894968 8.608486 -24.91502 12.78053 -0 26.41618 -0 -6.022834 -19.98375 -3.742678 -6.269966 12.19241 -25.4749 -0 8.052242 -0 8.504526 -20.13037 26.52771 -2.895487 -3.58481 4.868731 4.100249 7.099895 -8.532205 1.667623 21.02206 6.369235 2.636908 -29.32305 10.25375 6.633239 -19.98883 11.0894 84.98395 38.02107 -20.35909 -0 0 17.05153 0.205797 5.966022 2.452137 5.766243 -18.3707 1.138791 -98.2478 31.88499 26.80352 0 0 -17.54535 4.529083 17.79169 10.62068
0.7130867 109.339 10.46008 -0.8991992 6.782066 0.151337 10.21252 -28.21344 14.47473 -0 22.82431 -0 -5.003502 -21.83133 -3.655626 -6.66448 11.86518 -25.89855 -0 8.763455 -0 11.35954 -19.48293 27.90414 -3.166809 -3.330265 5.374501 4.519965 6.602397 -8.666167 1.721943 20.1657 6.65678 2.644849 -30.35811 10.94051 7.121169 -19.66455 11.06126 84.64688 41.00299 -20.19742 -0 0 16.93128 2.352335 5.881239 2.174676 6.033267 -18.02483 2.349409 -96.62475 30.0953 25.16031 0 0 -19.09456 7.799137 15.72175 7.101744
0.8726794 110.1093 12.77832 -0.8863988 7.810242 0.1101604 11.03527 -31.96311 14.22909 -0 19.39006 -0 -4.437032 -19.85107 -3.280351 -6.925149 12.13241 -24.72455 -0 9.750285 -0 12.50762 -19.53257 27.60968 -3.404061 -2.525059 5.30133 4.686289 6.57556 -8.794363 1.57244 19.47944 7.273786 2.981264 -30.55716 11.24027 7.169269 -18.95692 11.15736 85.24079 42.91978 -20.48587 -0 0 15.42183 1.965922 6.392317 2.901164 6.372544 -18.4357 2.597354 -93.56392 27.91007 21.87682 0 0 -22.20217 10.04486 13.04898 4.354653
1.038373 110.5323 15.86726 -0.7455538 7.468973 0.2018658 10.55223 -34.93055 11.62521 -0 15.47253 -0 -4.660222 -14.99151 -2.614382 -7.028059 13.00584 -22.31734 -0 10.95724 -0 11.64766 -20.47447 25.74003 -3.498426 -1.507379 4.755311 4.534318 6.930345 -8.763399 1.368432 19.29399 7.798448 3.372383 -29.92542 11.03172 6.45076 -18.11267 11.27979 86.72956 42.61813 -21.18604 -0 0 12.84265 -0.6084219 6.986516 4.242652 6.83407 -19.55213 1.901794 -90.10204 25.64566 17.79216 0 0 -26.11857 11.12901 11.06486 2.496
1.172962 110.5274 19.73234 -0.4680007 5.674687 0.4158472 8.631726 -35.96788 7.058004 -0 11.86186 -0 -5.603471 -8.777226 -1.736748 -6.959647 14.15447 -19.13438 -0 12.09745 -0 9.253101 -21.72134 22.81728 -3.344307 -0.7260182 3.983611 4.038166 7.691868 -8.552817 1.208788 19.72017 7.972166 3.608874 -28.4921 10.3592 4.971813 -17.47426 11.40116 88.69399 39.64532 -22.00759 -0 0 10.01004 -4.950425 7.550181 5.732836 7.372309 -21.24245 0.392376 -87.10401 23.24366 13.79683 0 0 -29.58163 11.61063 10.58531 0.9839132
1.275802 110.1636 24.27692 -0.1647131 2.862825 0.7160066 6.003367 -34.94167 1.83587 -0 9.530314 -0 -6.859699 -2.602604 -0.8601366 -6.690978 15.19261 -15.60057 -0 13.04699 -0 6.178156 -22.55392 19.5372 -2.930099 -0.3866603 3.205057 3.342468 8.822375 -8.319785 1.070063 20.5195 7.910446 3.721998 -26.53935 9.456227 3.118027 -17.20955 11.55418 90.65266 34.77347 -22.72847 -0 0 7.635333 -10.42919 8.27926 7.100944 7.853717 -23.26251 -1.65231 -85.04466 20.6854 10.59587 0 0 -31.65495 12.01721 11.41844 -0.5928846
1.374646 109.6386 29.36015 0.06950944 -0.09538194 1.027786 3.741769 -32.45859 -2.396205 -0 8.791602 -0 -7.924394 2.131792 -0.2895644 -6.287981 15.76987 -12.34055 -0 14.01909 -0 3.443152 -22.53626 16.783 -2.409464 -0.4234944 2.605198 2.697466 10.03634 -8.203523 0.9038062 21.33289 7.809406 3.792024 -24.57291 8.60011 1.45604 -17.24448 11.71701 92.17971 29.7099 -23.21013 -0 0 6.127267 -15.70116 9.10657 8.167881 8.11733 -25.09098 -3.715602 -84.03874 18.33795 8.599154 0 0 -31.95751 12.52791 12.65645 -2.223245
1.488091 109.15 34.83978 0.2264403 -2.593642 1.271937 2.350901 -29.18686 -4.986864 -0 9.13613 -0 -8.620554 4.828312 -0.1517772 -5.843866 15.70506 -9.75869 -0 15.51388 -0 1.531725 -21.67525 14.9938 -1.935603 -0.6337418 2.248679 2.232018 11.02653 -8.185124 0.7177863 22.0027 7.702313 3.827666 -22.90195 7.896671 0.2598604 -17.37692 11.82349 93.11726 25.65107 -23.38278 -0 0 5.432819 -19.65286 9.740265 8.813243 8.12822 -26.31736 -5.400206 -83.84259 16.56046 7.683633 0 0 -30.7386 13.06292 13.57855 -3.729102
1.610442 108.8475 40.57823 0.3086783 -4.441485 1.387748 1.866904 -25.41728 -6.054726 -0 9.941467 -0 -9.083352 5.475004 -0.3719932 -5.381057 14.88148 -7.990399 -0 18.12945 -0 0.3926511 -20.0788 14.14573 -1.545156 -0.8722441 2.131013 1.944949 11.637 -8.171866 0.5544861 22.54444 7.5197 3.80756 -21.60965 7.327371 -0.4637489 -17.47446 11.83621 93.47558 22.9579 -23.21153 -0 0 5.371999 -21.80786 9.97394 8.935184 7.931182 -26.79514 -6.543978 -84.24338 15.52613 7.655059 0 0 -28.3471 13.50829 14.03145 -4.974126
1.720112 108.873 46.42541 0.2647653 -5.576935 1.31978 2.230583 -21.17021 -5.842368 -0 10.89901 -0 -9.558627 4.154748 -0.7849733 -4.849673 13.02678 -7.111143 -0 22.54274 -0 -0.2497912 -17.73096 14.04181 -1.191976 -1.037105 2.252224 1.809636 11.81185 -8.077363 0.4396042 22.98642 7.233345 3.745103 -20.76758 6.870133 -0.7121641 -17.50575 11.77469 93.229 21.77439 -22.6316 -0 0 5.870907 -22.01881 9.757063 8.498524 7.544868 -26.47838 -7.077854 -85.22954 15.35693 8.597902 0 0 -24.92949 13.7535 14.15489 -5.792016
1.794795 109.3708 52.20508 0.0337672 -5.920384 1.031422 3.305541 -16.45432 -4.637933 -0 11.81569 -0 -10.2619 1.107535 -1.159723 -4.20588 9.65003 -7.155788 -0 29.23716 -0 -0.791048 -14.6457 14.38485 -0.82578 -0.9926123 2.643641 1.796063 11.5536 -7.817744 0.3750269 23.30758 6.901393 3.695157 -20.51786 6.541043 -0.4242921 -17.52036 11.71241 92.3025 22.32346 -21.5306 -0 0 6.923481 -20.41196 9.186253 7.667661 6.955685 -25.38766 -6.950093 -86.88241 16.15144 10.79806 0 0 -20.71912 13.60534 14.16124 -5.822008
1.831697 110.3722 57.76016 -0.280707 -5.649686 0.5641952 4.61806 -11.29077 -3.070895 -0 12.26028 -0 -11.12733 -2.783817 -1.25545 -3.501295 4.350283 -7.759642 -0 37.40049 -0 -1.570122 -11.21527 14.83846 -0.4994395 -0.619794 3.342394 1.79803 11.05479 -7.31549 0.3511219 23.49134 6.622236 3.710249 -20.79912 6.341828 0.2978673 -17.66729 11.74791 90.79023 24.39303 -19.82445 -0 0 8.447225 -17.96132 8.616762 6.942229 6.227433 -23.84133 -6.303251 -89.06647 17.59231 14.18745 0 0 -16.45397 12.92017 14.18916 -4.79301
1.849068 111.6174 63.04732 -0.3441911 -5.544425 0.03308893 5.434349 -5.441091 -1.974299 -0 11.64148 -0 -11.63678 -6.219815 -1.076037 -2.768552 -2.542791 -8.003575 -0 43.84704 -0 -2.386402 -8.292407 15.49148 -0.4106896 -0.008543045 4.29253 1.609086 10.72882 -6.539604 0.3928599 23.63917 6.345873 3.721417 -20.98123 6.167827 0.9199693 -18.17134 11.8912 89.09554 26.60282 -17.49423 -0 0 10.30858 -16.45148 8.45672 6.869122 5.618042 -22.4335 -5.606159 -91.15958 18.72767 17.75704 0 0 -12.97017 11.9432 14.13268 -3.23812
1.864857 112.661 68.1529 -0.05816413 -6.34958 -0.4955718 5.575609 1.408409 -1.576435 -0 10.04656 -0 -11.41429 -8.707475 -0.9492476 -1.725333 -9.925255 -7.129242 -0 45.00876 -0 -2.620883 -6.426779 16.8321 -0.5815279 0.5024982 5.286706 1.128837 10.87757 -5.592179 0.5458911 23.82839 5.829145 3.503261 -20.46971 5.867028 0.7795992 -19.30405 12.03585 87.70905 27.20574 -14.62587 -0 0 12.56428 -16.85968 8.636823 7.589761 5.30373 -21.47345 -5.269952 -92.53184 18.78626 20.56465 0 0 -10.3934 11.05986 13.84531 -2.008347
1.914248 113.28 73.22533 0.1271635 -7.533804 -1.056597 5.592084 8.403959 -1.263132 -0 8.466591 -0 -10.7714 -10.86188 -1.144403 -0.0534708 -16.54649 -5.246032 -0 40.35406 -0 -2.006881 -5.272467 18.54459 -0.6705581 0.5826126 6.138585 0.5856325 11.44456 -4.841816 0.7399775 23.72716 4.99182 2.836111 -19.82644 5.484999 -0.1367131 -21.28595 12.1326 86.96751 26.31106 -11.75342 -0 0 15.33298 -18.42438 9.059341 9.064303 4.942008 -20.83749 -5.152795 -93.08145 17.94747 23.19953 0 0 -9.050552 10.06793 13.39266 -0.6158527
2.050049 113.5794 78.39129 -0.2118465 -7.839648 -1.728798 5.872028 13.41567 -0.2741921 -0 7.831082 -0 -10.21973 -13.42701 -1.772525 1.922848 -20.99596 -3.267905 -0 32.03263 -0 -0.6483484 -4.395388 19.57116 -0.4137684 0.1538058 6.743483 0.3659517 12.10398 -4.722154 0.8422002 22.89793 4.022451 1.658056 -20.06743 5.245156 -1.203405 -23.87187 12.18657 86.80475 25.54131 -9.645521 -0 0 18.40294 -19.62692 9.957077 11.13865 4.069055 -20.28719 -4.811686 -92.92907 16.93164 26.48324 0 0 -9.603087 8.607602 12.83393 1.941994
2.27807 113.7185 83.67501 -0.8661996 -7.236856 -2.478454 6.256999 15.55019 1.096247 -0 8.202813 -0 -9.968875 -15.96748 -2.56469 3.273107 -22.61899 -2.288778 -0 24.11999 -0 0.7087532 -3.825596 19.64878 0.02860416 -0.4336543 7.024728 0.510955 12.46211 -5.047967 0.8470413 21.78361 3.287648 0.4672422 -20.91544 5.23988 -1.85702 -26.02607 12.16605 86.81187 25.37 -8.508303 -0 0 20.97419 -19.76136 10.9634 12.94165 3.031189 -19.73652 -4.263555 -92.68764 16.29672 29.63029 0 0 -10.73032 7.14863 12.34618 4.733925
2.518785 113.7303 89.02904 -1.262427 -7.020869 -3.21776 6.38033 16.34412 1.449154 -0 8.761244 -0 -9.991229 -17.09835 -2.838545 3.627058 -22.64269 -2.352728 -0 20.40451 -0 0.9427264 -3.685174 19.58227 0.27568 -0.6732808 6.998483 0.5967683 12.39761 -5.097521 0.8673279 21.4769 3.077704 0.09131812 -21.06813 5.303486 -2.084272 -26.73312 12.05397 86.7376 24.93431 -7.921115 -0 0 22.03005 -19.62578 11.1189 13.46692 2.732284 -19.38472 -4.036657 -92.99562 16.10544 30.92996 0 0 -10.1927 6.61145 12.43749 5.594518
